<svg xmlns="http://www.w3.org/2000/svg" width="183" height="251" viewBox="0 0 183 251" fill="none">
<g clip-path="url(#clip0_4157_58602)">
<circle opacity="0.7" cx="91.8619" cy="170.246" r="104.754" transform="rotate(180 91.8619 170.246)" stroke="#BABABA" stroke-width="0.8" stroke-dasharray="2.16 2.16"/>
<circle opacity="0.7" cx="91.9951" cy="170" r="72" transform="rotate(180 91.9951 170)" stroke="#BABABA" stroke-width="0.8" stroke-dasharray="2.16 2.16"/>
<path opacity="0.7" d="M91.862 65.4915C105.618 65.4915 119.24 68.201 131.95 73.4654C144.659 78.7298 156.207 86.446 165.934 96.1733C175.662 105.901 183.378 117.449 188.642 130.158C193.907 142.867 196.616 156.489 196.616 170.246" stroke="#3448FF" stroke-width="0.8" stroke-dasharray="2.16 2.16"/>
<path opacity="0.7" d="M91.9951 71L91.9951 104" stroke="#BABABA" stroke-width="0.8" stroke-dasharray="2.16 2.16"/>
<path opacity="0.7" d="M188.55 150.336L181.804 152.143" stroke="#3448FF" stroke-width="0.8"/>
<path opacity="0.7" d="M178.55 126.195L172.502 129.687" stroke="#3448FF" stroke-width="0.8"/>
<path opacity="0.7" d="M157.704 242.086L162.642 247.024" stroke="#3448FF" stroke-width="0.8"/>
<path opacity="0.7" d="M162.641 105.463L157.702 110.401" stroke="#3448FF" stroke-width="0.8"/>
<path opacity="0.7" d="M172.501 222.803L178.549 226.295" stroke="#3448FF" stroke-width="0.8"/>
<path opacity="0.7" d="M141.911 89.5566L138.419 95.6046" stroke="#3448FF" stroke-width="0.8"/>
<path opacity="0.7" d="M181.804 200.346L188.549 202.153" stroke="#3448FF" stroke-width="0.8"/>
<path opacity="0.7" d="M117.769 79.5566L115.961 86.3023" stroke="#3448FF" stroke-width="0.8"/>
<path d="M91.989 69L93.469 67.49L94.979 66.01L93.469 64.53L91.989 63.02L90.509 64.53L88.999 66.01L90.509 67.49L91.989 69Z" fill="#3448FF"/>
<path d="M66.0331 158.28C63.7744 158.28 62.0291 157.832 60.7971 156.936C59.5651 156.04 58.8371 154.621 58.6131 152.68L62.5331 152.26C62.6264 152.839 62.7851 153.343 63.0091 153.772C63.2517 154.183 63.6157 154.5 64.1011 154.724C64.5864 154.948 65.2491 155.06 66.0891 155.06C67.0784 155.06 67.8064 154.873 68.2731 154.5C68.7584 154.127 69.0011 153.613 69.0011 152.96C69.0011 152.531 68.9171 152.167 68.7491 151.868C68.5811 151.569 68.3011 151.355 67.9091 151.224C67.5171 151.075 66.9571 151 66.2291 151H63.4291V148.2H66.2291C66.7331 148.2 67.1624 148.144 67.5171 148.032C67.8717 147.901 68.1331 147.696 68.3011 147.416C68.4877 147.117 68.5811 146.735 68.5811 146.268C68.5811 145.521 68.3664 144.989 67.9371 144.672C67.5264 144.336 66.8731 144.168 65.9771 144.168C64.8757 144.168 64.1197 144.401 63.7091 144.868C63.2984 145.335 63.0371 145.988 62.9251 146.828L59.1731 146.492C59.3224 145.335 59.6491 144.345 60.1531 143.524C60.6571 142.703 61.3851 142.068 62.3371 141.62C63.3077 141.153 64.5117 140.92 65.9491 140.92C68.1704 140.92 69.7851 141.303 70.7931 142.068C71.8011 142.815 72.3051 143.935 72.3051 145.428C72.3051 146.884 71.7544 147.939 70.6531 148.592C69.5704 149.245 68.0211 149.6 66.0051 149.656L68.5811 148.844V150.188L66.0051 149.544C67.7971 149.544 69.1971 149.675 70.2051 149.936C71.2317 150.197 71.9504 150.617 72.3611 151.196C72.7717 151.756 72.9771 152.512 72.9771 153.464C72.9771 154.416 72.7344 155.256 72.2491 155.984C71.7824 156.693 71.0357 157.253 70.0091 157.664C69.0011 158.075 67.6757 158.28 66.0331 158.28ZM81.901 144.196C80.837 144.196 80.025 144.513 79.465 145.148C78.905 145.783 78.569 146.725 78.457 147.976L74.677 147.584C74.8076 146.203 75.1436 145.008 75.685 144C76.2263 142.992 77.001 142.217 78.009 141.676C79.0356 141.116 80.3423 140.836 81.929 140.836C83.3476 140.836 84.5516 141.041 85.541 141.452C86.5303 141.844 87.277 142.451 87.781 143.272C88.3036 144.093 88.565 145.139 88.565 146.408C88.565 147.491 88.285 148.405 87.725 149.152C87.1836 149.899 86.3996 150.515 85.373 151C84.3463 151.485 83.1423 151.868 81.761 152.148C80.9583 152.335 80.2956 152.521 79.773 152.708C79.2503 152.876 78.8396 153.081 78.541 153.324C78.2423 153.548 78.0276 153.828 77.897 154.164C77.785 154.481 77.729 154.873 77.729 155.34L76.301 154.92C76.637 154.883 77.0476 154.845 77.533 154.808C78.0183 154.752 78.5316 154.705 79.073 154.668C79.633 154.631 80.1743 154.603 80.697 154.584C81.2196 154.565 81.6863 154.556 82.097 154.556H88.621V158H74.229C74.2103 157.664 74.1916 157.328 74.173 156.992C74.173 156.656 74.173 156.311 74.173 155.956C74.173 154.649 74.369 153.585 74.761 152.764C75.153 151.924 75.7783 151.252 76.637 150.748C77.4956 150.225 78.5876 149.796 79.913 149.46C80.9023 149.199 81.705 148.956 82.321 148.732C82.937 148.508 83.4036 148.275 83.721 148.032C84.0383 147.789 84.253 147.528 84.365 147.248C84.4956 146.968 84.561 146.651 84.561 146.296C84.561 145.885 84.4676 145.521 84.281 145.204C84.0943 144.887 83.805 144.644 83.413 144.476C83.021 144.289 82.517 144.196 81.901 144.196ZM97.1203 158.336C95.403 158.336 94.003 158.14 92.9203 157.748C91.8563 157.356 91.0816 156.796 90.5963 156.068C90.111 155.34 89.8683 154.509 89.8683 153.576C89.8683 152.717 90.0923 151.999 90.5403 151.42C90.9883 150.841 91.6603 150.384 92.5563 150.048C93.471 149.712 94.6283 149.497 96.0283 149.404L94.1523 150.048V148.872L96.0283 149.684C94.871 149.553 93.8816 149.339 93.0603 149.04C92.239 148.723 91.6136 148.275 91.1843 147.696C90.7736 147.117 90.5683 146.361 90.5683 145.428C90.5683 144.009 91.0816 142.899 92.1083 142.096C93.135 141.275 94.8056 140.864 97.1203 140.864C99.4536 140.864 101.134 141.275 102.16 142.096C103.187 142.899 103.7 144.009 103.7 145.428C103.7 146.361 103.486 147.117 103.056 147.696C102.627 148.275 102.002 148.723 101.18 149.04C100.378 149.339 99.3976 149.553 98.2403 149.684L100.116 148.872V150.048L98.2403 149.404C99.6403 149.497 100.788 149.712 101.684 150.048C102.599 150.384 103.271 150.841 103.7 151.42C104.148 151.999 104.372 152.717 104.372 153.576C104.372 154.509 104.13 155.34 103.644 156.068C103.159 156.796 102.384 157.356 101.32 157.748C100.275 158.14 98.875 158.336 97.1203 158.336Z" fill="#97A3B6"/>
</g>
<defs>
<clipPath id="clip0_4157_58602">
<path d="M0.49707 14C0.49707 6.26801 6.76508 0 14.4971 0H168.33C176.062 0 182.33 6.26801 182.33 14V237C182.33 244.732 176.062 251 168.33 251H14.4971C6.76508 251 0.49707 244.732 0.49707 237V14Z" fill="white"/>
</clipPath>
</defs>
</svg>
