<svg xmlns="http://www.w3.org/2000/svg" width="182" height="251" viewBox="0 0 182 251" fill="none">
<g clip-path="url(#clip0_301_1085)">
<circle opacity="0.2" cx="29" cy="29" r="29" transform="matrix(1 0 0 -1 116.336 135)" stroke="#1A2480" stroke-width="0.8" stroke-dasharray="2.16 2.16"/>
<g opacity="0.4">
<line x1="0.335938" y1="61.6" x2="182.613" y2="61.6" stroke="url(#paint0_linear_301_1085)" stroke-width="0.8" stroke-dasharray="2.16 2.16"/>
<line y1="-0.4" x2="182.277" y2="-0.4" transform="matrix(1 1.24306e-08 -1.44911e-08 -1 0.335938 102)" stroke="url(#paint1_linear_301_1085)" stroke-width="0.8" stroke-dasharray="2.16 2.16"/>
<line x1="0.335938" y1="141.6" x2="182.613" y2="141.6" stroke="url(#paint2_linear_301_1085)" stroke-width="0.8" stroke-dasharray="2.16 2.16"/>
<line opacity="0.3" x1="0.335938" y1="194.6" x2="182.613" y2="194.6" stroke="#323232" stroke-width="0.8" stroke-dasharray="2.16 2.16"/>
</g>
<path d="M83.2561 144.42C81.1561 144.42 80.0081 145.792 79.8121 148.536L76.0041 148.228C76.3121 143.72 78.6081 140.864 83.3121 140.864C87.5401 140.864 89.9201 142.684 89.9201 146.436C89.9201 149.628 87.5961 151.336 83.1441 152.176C80.6241 152.736 79.7841 153.212 79.6161 154.472C80.5681 154.444 81.6041 154.416 82.3601 154.416H90.0321V158H75.6401C75.5841 157.328 75.5841 156.684 75.5841 155.956C75.5841 151.924 77.4041 150.16 81.6601 149.208C85.1601 148.396 85.8321 147.696 85.8321 146.408C85.8321 145.288 85.0201 144.42 83.2561 144.42ZM94.7612 141.2L98.1772 147.248H98.4572L101.565 141.2H105.849V141.256L100.837 149.852L105.933 157.944V158H101.425L98.0092 151.784H97.7852L94.4532 158H90.1972V157.944L95.2932 149.348L90.2532 141.256V141.2H94.7612Z" fill="#D3DCE3"/>
<path d="M45.4112 172.17C44.7278 172.17 44.1312 172.011 43.6212 171.692C43.1128 171.374 42.722 170.932 42.4487 170.367C42.177 169.802 42.0412 169.16 42.0412 168.44C42.0412 167.717 42.1787 167.077 42.4537 166.52C42.7303 165.962 43.122 165.527 43.6287 165.217C44.137 164.906 44.7278 164.75 45.4012 164.75C45.9195 164.75 46.3978 164.843 46.8362 165.03C47.2745 165.217 47.637 165.482 47.9237 165.827C48.2103 166.171 48.3928 166.572 48.4712 167.03H47.5212C47.4412 166.718 47.3037 166.452 47.1087 166.232C46.9153 166.011 46.6762 165.843 46.3912 165.73C46.1062 165.617 45.7895 165.56 45.4412 165.56C44.9345 165.56 44.497 165.676 44.1287 165.907C43.762 166.137 43.4803 166.469 43.2837 166.902C43.0887 167.334 42.9912 167.847 42.9912 168.44C42.9912 169.035 43.0887 169.552 43.2837 169.992C43.4787 170.431 43.7595 170.768 44.1262 171.005C44.4945 171.242 44.9328 171.36 45.4412 171.36C45.8378 171.36 46.1895 171.287 46.4962 171.14C46.8028 170.993 47.0537 170.775 47.2487 170.485C47.4437 170.193 47.5703 169.835 47.6287 169.41H48.5462C48.4678 169.978 48.2903 170.47 48.0137 170.885C47.7387 171.3 47.3795 171.618 46.9362 171.84C46.4928 172.06 45.9845 172.17 45.4112 172.17ZM52.9384 168.6C52.9384 168.362 52.9009 168.162 52.8259 168C52.7509 167.838 52.6367 167.717 52.4834 167.635C52.3317 167.552 52.14 167.51 51.9084 167.51C51.65 167.51 51.41 167.562 51.1884 167.667C50.9684 167.772 50.7884 167.946 50.6484 168.187C50.5084 168.429 50.4384 168.743 50.4384 169.13L50.1284 168.32V167.75H50.2784C50.3884 167.53 50.5325 167.342 50.7109 167.187C50.8909 167.032 51.0992 166.914 51.3359 166.832C51.5725 166.751 51.83 166.71 52.1084 166.71C52.4684 166.71 52.7792 166.777 53.0409 166.912C53.3042 167.046 53.5059 167.241 53.6459 167.497C53.7875 167.752 53.8584 168.06 53.8584 168.42V172H52.9384V168.6ZM49.5184 172V164.88H50.4384V172H49.5184ZM59.3659 172C59.1659 172 58.9992 171.967 58.8659 171.9C58.7325 171.832 58.6325 171.731 58.5659 171.597C58.4992 171.462 58.4659 171.297 58.4659 171.1L58.3259 171.02V169.17V168.88V168.26C58.3259 168.078 58.2842 167.929 58.2009 167.812C58.1192 167.694 57.9925 167.606 57.8209 167.547C57.6509 167.489 57.4325 167.46 57.1659 167.46C56.9125 167.46 56.7042 167.489 56.5409 167.547C56.3775 167.606 56.2509 167.702 56.1609 167.837C56.0725 167.971 56.0175 168.152 55.9959 168.38H55.0859C55.1142 168.003 55.2134 167.691 55.3834 167.442C55.555 167.192 55.795 167.007 56.1034 166.885C56.4134 166.762 56.7909 166.7 57.2359 166.7C57.6675 166.7 58.0334 166.76 58.3334 166.88C58.6334 166.998 58.8617 167.18 59.0184 167.425C59.1767 167.67 59.2559 167.978 59.2559 168.35V170.87C59.2559 170.985 59.27 171.075 59.2984 171.14C59.3267 171.203 59.3725 171.249 59.4359 171.277C59.5009 171.306 59.5909 171.32 59.7059 171.32C59.7309 171.32 59.7559 171.32 59.7809 171.32C59.8059 171.32 59.8309 171.32 59.8559 171.32V172C59.7742 172 59.6925 172 59.6109 172C59.5292 172 59.4475 172 59.3659 172ZM56.6059 172.13C56.2559 172.13 55.9509 172.071 55.6909 171.952C55.4309 171.834 55.23 171.662 55.0884 171.437C54.9467 171.211 54.8759 170.942 54.8759 170.63C54.8759 170.34 54.9367 170.084 55.0584 169.862C55.1817 169.641 55.3734 169.458 55.6334 169.315C55.895 169.17 56.2292 169.072 56.6359 169.02L57.9559 168.85C58.0409 168.838 58.11 168.817 58.1634 168.787C58.2184 168.756 58.2592 168.713 58.2859 168.66C58.3125 168.607 58.3259 168.54 58.3259 168.46L58.6959 168.99C58.6959 169.087 58.6834 169.168 58.6584 169.235C58.6334 169.302 58.5942 169.354 58.5409 169.392C58.4875 169.431 58.4192 169.457 58.3359 169.47L56.7859 169.7C56.5509 169.735 56.3592 169.793 56.2109 169.875C56.0642 169.955 55.9567 170.055 55.8884 170.175C55.82 170.293 55.7859 170.432 55.7859 170.59C55.7859 170.763 55.8259 170.912 55.9059 171.037C55.9875 171.162 56.1025 171.257 56.2509 171.322C56.4009 171.387 56.5759 171.42 56.7759 171.42C57.0475 171.42 57.3025 171.363 57.5409 171.25C57.7792 171.137 57.9692 170.986 58.1109 170.797C58.2542 170.609 58.3259 170.407 58.3259 170.19H58.6159V170.95C58.5342 171.168 58.4 171.367 58.2134 171.547C58.0267 171.726 57.7959 171.867 57.5209 171.972C57.2459 172.078 56.9409 172.13 56.6059 172.13Z" fill="#D3DCE3"/>
<path opacity="0.7" d="M145.917 105.108C146.134 105.153 146.273 105.365 146.228 105.581L145.495 109.106C145.45 109.322 145.238 109.461 145.022 109.416C144.805 109.371 144.667 109.159 144.711 108.943L145.363 105.81L142.23 105.159C142.014 105.114 141.875 104.902 141.92 104.686C141.965 104.469 142.176 104.331 142.393 104.376L145.917 105.108ZM127.067 114.406L127.144 114.013L127.067 114.406ZM134.469 112.954L134.25 112.619L134.469 112.954ZM97.5021 110.186L97.6459 110.56L97.5021 110.186ZM103.014 109.704L103.091 109.312L103.014 109.704ZM67.9616 122.493L68.245 122.775L67.9616 122.493ZM71.4523 120.218L71.5961 120.592L71.4523 120.218ZM29.108 151.742L29.288 151.384L29.108 151.742ZM40.6905 149.868L40.9739 150.15L40.6905 149.868ZM-0.164062 137L0.0158537 136.643L0.930607 137.103L0.750691 137.461L0.570775 137.818L-0.343979 137.357L-0.164062 137Z" fill="url(#paint3_linear_301_1085)"/>
<path opacity="0.5" d="M136.1 120.5C138.633 122.084 141.628 123 144.836 123C153.949 123 161.336 115.613 161.336 106.5C161.336 97.3873 153.949 90 144.836 90C140.72 90 136.956 91.5073 134.065 94C131.652 96.081 129.848 98.8489 128.957 102" stroke="#2330AA" stroke-width="0.8" stroke-dasharray="2.16 2.16"/>
</g>
<defs>
<linearGradient id="paint0_linear_301_1085" x1="0.335937" y1="62.5" x2="182.613" y2="62.5" gradientUnits="userSpaceOnUse">
<stop offset="0.249673" stop-color="#323232" stop-opacity="0.3"/>
<stop offset="0.268576" stop-color="#323232" stop-opacity="0"/>
<stop offset="0.29063" stop-color="#323232"/>
</linearGradient>
<linearGradient id="paint1_linear_301_1085" x1="0" y1="0.5" x2="182.277" y2="0.5" gradientUnits="userSpaceOnUse">
<stop offset="0.434524" stop-color="#323232"/>
<stop offset="0.483656" stop-color="#323232" stop-opacity="0.3"/>
<stop offset="0.526088" stop-color="#323232" stop-opacity="0"/>
</linearGradient>
<linearGradient id="paint2_linear_301_1085" x1="0.335937" y1="142.5" x2="182.613" y2="142.5" gradientUnits="userSpaceOnUse">
<stop offset="0.25082" stop-color="#323232"/>
<stop offset="0.271767" stop-color="#323232" stop-opacity="0"/>
<stop offset="0.289222" stop-color="#323232" stop-opacity="0.3"/>
<stop offset="0.633403" stop-color="#323232" stop-opacity="0"/>
<stop offset="0.717469" stop-color="#323232" stop-opacity="0.3"/>
<stop offset="0.757035" stop-color="#323232"/>
</linearGradient>
<linearGradient id="paint3_linear_301_1085" x1="146.335" y1="109" x2="26.6851" y2="69.2356" gradientUnits="userSpaceOnUse">
<stop offset="0.329896" stop-color="#3448FF"/>
<stop offset="1" stop-color="#97A3B6" stop-opacity="0"/>
</linearGradient>
<clipPath id="clip0_301_1085">
<path d="M0 14C0 6.26801 6.26801 0 14 0H167.832C175.564 0 181.832 6.26801 181.832 14V237C181.832 244.732 175.564 251 167.832 251H14C6.26801 251 0 244.732 0 237V14Z" fill="white"/>
</clipPath>
</defs>
</svg>
